<svg viewBox="0 0 32 32" fill="white"
  xmlns="http://www.w3.org/2000/svg" aria-hidden="true">
  <path fill-rule="evenodd" clip-rule="evenodd" d="M15.9996 32C19.1802 32 21.3817 31.9653 22.6039 31.8958C25.4929 31.7569 27.7291 30.8958 29.3124 29.3125C30.8958 27.7292 31.7569 25.4931 31.8958 22.6042C31.9653 21.3819 32 19.1806 32 16L31.9998 15.5907C31.9969 12.6299 31.9623 10.5649 31.8958 9.39583C31.7569 6.50694 30.8958 4.27083 29.3124 2.6875C27.7291 1.10417 25.4929 0.243056 22.6039 0.104167C21.3817 0.0347222 19.1802 0 15.9996 0L15.5903 0.000196912C12.6294 0.00308496 10.5644 0.0377415 9.39528 0.104167C6.50632 0.243056 4.27015 1.10417 2.68678 2.6875C1.10341 4.27083 0.242274 6.50694 0.103382 9.39583C0.0399742 10.5118 0.00551368 12.444 0 15.1925V16.8075C0.00551368 19.556 0.0399742 21.4882 0.103382 22.6042C0.242274 25.4931 1.10341 27.7292 2.68678 29.3125C4.27015 30.8958 6.50632 31.7569 9.39528 31.8958C10.6175 31.9653 12.819 32 15.9996 32ZM14.3829 29.328C13.4034 29.3351 12.6601 29.3351 12.1527 29.328C11.6454 29.321 10.9654 29.2999 10.1128 29.2646C9.26023 29.2294 8.53446 29.1589 7.93553 29.0532C7.33659 28.9475 6.83278 28.8172 6.4241 28.6622C5.71947 28.3803 5.0994 27.9716 4.56388 27.4361C4.02836 26.9005 3.61968 26.2805 3.33783 25.5758C3.18281 25.1671 3.05245 24.6633 2.94676 24.0644C2.84106 23.4654 2.7706 22.7396 2.73537 21.887C2.70014 21.0344 2.679 20.3544 2.67195 19.8471C2.66491 19.3397 2.66491 18.5963 2.67195 17.6169C2.67799 16.7773 2.68144 16.2614 2.68231 16.0689V15.9305C2.68144 15.7381 2.67799 15.2221 2.67195 14.3825C2.66491 13.4031 2.66491 12.6597 2.67195 12.1524C2.679 11.645 2.70014 10.965 2.73537 10.1124C2.7706 9.25979 2.84106 8.534 2.94676 7.93506C3.05245 7.33611 3.18281 6.83229 3.33783 6.42359C3.61968 5.71895 4.02836 5.09886 4.56388 4.56333C5.0994 4.0278 5.71947 3.61911 6.4241 3.33725C6.83278 3.18223 7.33659 3.05187 7.93553 2.94618C8.53446 2.84048 9.26023 2.77001 10.1128 2.73478C10.9654 2.69955 11.6454 2.67841 12.1527 2.67136C12.3218 2.66902 12.5172 2.66745 12.7387 2.66667H13.4821C13.7561 2.66745 14.0564 2.66902 14.3829 2.67136C15.1524 2.6769 15.6501 2.68026 15.8759 2.68145L17.6066 2.68193C18.593 2.66784 19.3399 2.66432 19.8473 2.67136C20.3546 2.67841 21.0346 2.69955 21.8872 2.73478C22.7398 2.77001 23.4655 2.84048 24.0645 2.94618C24.6634 3.05187 25.1672 3.18223 25.5759 3.33725C26.2805 3.61911 26.9006 4.0278 27.4361 4.56333C27.9716 5.09886 28.3803 5.71895 28.6622 6.42359C28.8172 6.83229 28.9475 7.33611 29.0532 7.93506C29.1589 8.534 29.2294 9.25979 29.2646 10.1124C29.2999 10.965 29.321 11.645 29.328 12.1524C29.3351 12.6597 29.3351 13.4031 29.328 14.3825C29.3225 15.1521 29.3192 15.6498 29.318 15.8756V16.1238C29.3192 16.3496 29.3225 16.8473 29.328 17.6169C29.3351 18.5963 29.3351 19.3397 29.328 19.8471C29.321 20.3544 29.2999 21.0344 29.2646 21.887C29.2294 22.7396 29.1589 23.4654 29.0532 24.0644C28.9475 24.6633 28.8172 25.1671 28.6622 25.5758C28.3803 26.2805 27.9716 26.9005 27.4361 27.4361C26.9006 27.9716 26.2805 28.3803 25.5759 28.6622C25.1672 28.8172 24.6634 28.9475 24.0645 29.0532C23.4655 29.1589 22.7398 29.2294 21.8872 29.2646C21.0346 29.2999 20.3546 29.321 19.8473 29.328C19.3399 29.3351 18.5966 29.3351 17.6171 29.328C16.9175 29.323 16.4426 29.3198 16.1924 29.3183L16.0692 29.3177L16 29.3175L15.9721 29.3175L15.9308 29.3177L15.8076 29.3183C15.5574 29.3198 15.0825 29.323 14.3829 29.328ZM26.1449 8.36715C25.7971 8.71498 25.3784 8.88889 24.8889 8.88889C24.3994 8.88889 23.9807 8.71498 23.6329 8.36715C23.285 8.01932 23.1111 7.60064 23.1111 7.11111C23.1111 6.62158 23.285 6.2029 23.6329 5.85507C23.9807 5.50725 24.3994 5.33333 24.8889 5.33333C25.3784 5.33333 25.7971 5.50725 26.1449 5.85507C26.4928 6.2029 26.6667 6.62158 26.6667 7.11111C26.6667 7.60064 26.4928 8.01932 26.1449 8.36715ZM16 24C18.22 24 20.1083 23.2217 21.665 21.665C23.2217 20.1083 24 18.22 24 16C24 13.78 23.2217 11.8917 21.665 10.335C20.1083 8.77834 18.22 8 16 8C13.78 8 11.8917 8.77834 10.335 10.335C8.77834 11.8917 8 13.78 8 16C8 18.22 8.77834 20.1083 10.335 21.665C11.8917 23.2217 13.78 24 16 24ZM12.2292 19.7708C13.2708 20.8125 14.5278 21.3333 16 21.3333C17.4722 21.3333 18.7292 20.8125 19.7708 19.7708C20.8125 18.7292 21.3333 17.4722 21.3333 16C21.3333 14.5278 20.8125 13.2708 19.7708 12.2292C18.7292 11.1875 17.4722 10.6667 16 10.6667C14.5278 10.6667 13.2708 11.1875 12.2292 12.2292C11.1875 13.2708 10.6667 14.5278 10.6667 16C10.6667 17.4722 11.1875 18.7292 12.2292 19.7708Z" />
</svg>
