<svg viewBox="0 0 32 32" fill="white"
  xmlns="http://www.w3.org/2000/svg" aria-hidden="true">
  <path fill-rule="evenodd" clip-rule="evenodd" d="M5.41539 5.33333H26.5846C29.5754 5.33333 32 7.66815 32 10.5481V21.4519C32 24.3319 29.5754 26.6667 26.5846 26.6667H5.41539C2.42412 26.6667 0 24.3319 0 21.4519V10.5481C0 7.66815 2.42412 5.33333 5.41539 5.33333ZM11.7046 21.2552L20.9468 16.6168V16.6214C21.079 16.5551 21.1871 16.4494 21.2548 16.3195C21.434 15.9776 21.2961 15.5583 20.9468 15.383L11.7046 10.7446C11.6037 10.6936 11.4918 10.6667 11.3785 10.6667C10.9856 10.6662 10.6671 10.977 10.6667 11.3615V20.6383C10.6667 20.7496 10.6942 20.8591 10.7463 20.9574C10.9269 21.2988 11.3558 21.4319 11.7046 21.2552Z" />
</svg>
